<svg width="194" height="193" viewBox="0 0 194 193" fill="none" xmlns="http://www.w3.org/2000/svg">
<path d="M60.801 155.102L50.6681 172.518L60.801 190.25C60.801 190.25 65.0727 192.765 68.0839 192.784C70.5134 192.799 74.1003 191.2 74.1003 191.2L97.5324 152.886L118.114 190.25C118.114 190.25 122.151 192.784 125.396 192.784C128.563 192.784 133.631 190.25 133.631 190.25L144.08 172.518L133.631 154.152L126.348 166.185L107.665 136.103L121.914 113.938H158.329L151.996 125.654H172.579L183.028 106.971C183.028 106.971 184.239 102.619 183.028 100.322C181.732 97.8634 177.012 96.522 177.012 96.522H132.047L154.213 58.5239C154.213 58.5239 155.217 54.451 154.213 52.1909C153.107 49.7023 148.83 47.7578 148.83 47.7578H126.981L116.531 66.1235H130.147L110.515 96.522H83.9164L66.8173 65.4902L80.7499 66.1235L70.3005 47.7578H48.1349C48.1349 47.7578 44.1812 49.8729 42.7519 52.1909C41.4139 54.3609 41.1686 58.5239 41.1686 58.5239L63.6508 96.522H16.7866C16.7866 96.522 13.791 98.443 12.6701 100.322C11.3157 102.592 11.4035 106.971 11.4035 106.971L22.8029 125.654H43.7018L37.0522 113.938H74.1003L87.3996 136.103L68.0839 166.185L60.801 155.102Z" fill="#CEEAB3"/>
<path d="M128.479 134.652C127.083 132.285 128.868 129.314 131.612 129.435L172.443 131.238C175.064 131.354 176.609 134.229 175.258 136.478L155.197 169.875C153.846 172.124 150.582 172.111 149.249 169.852L128.479 134.652Z" fill="#98CBA8"/>
<circle cx="179.544" cy="160.798" r="11.0828" fill="#98CBA8"/>
<path d="M65.1189 134.652C66.5152 132.285 64.7301 129.314 61.9852 129.435L21.1542 131.238C18.5333 131.354 16.9889 134.229 18.3398 136.478L38.4009 169.875C39.7517 172.124 43.0158 172.111 44.349 169.852L65.1189 134.652Z" fill="#98CBA8"/>
<circle cx="11.0828" cy="11.0828" r="11.0828" transform="matrix(-1 0 0 1 25.1445 149.715)" fill="#98CBA8"/>
<path d="M100.122 81.9714C98.7322 84.3415 95.2675 84.2252 94.0398 81.7671L75.7774 45.2034C74.6052 42.8565 76.3682 40.1094 78.9901 40.1975L117.927 41.5052C120.549 41.5932 122.124 44.4523 120.796 46.7153L100.122 81.9714Z" fill="#98CBA8"/>
<circle cx="98.1652" cy="24.2664" r="11.0828" transform="rotate(-119.069 98.1652 24.2664)" fill="#98CBA8"/>
</svg>
